<svg width="24" height="24" viewBox="0 0 24 24" fill="none" xmlns="http://www.w3.org/2000/svg">
<g clip-path="url(#clip0)">
<path d="M7.99999 16C5.71509 17.1 3.42729 18.2 1.14399 19.4C0.248807 19.9 -0.0853127 21 -1.26604e-05 22C0.0416513 22.6 -0.181103 23.3999 0.440877 23.7999C1.03179 24.0999 1.72458 23.9 2.36608 24H23.1021C23.8711 23.9 24.0751 23.1 24.0001 22.5C24.0141 21.5 24.0681 20.4999 23.3421 19.7999C22.7511 19.1999 21.9071 18.9 21.1851 18.5C19.4571 17.7 17.7281 16.8 16.0001 16H8.00008H7.99999Z" fill="#C0392B"/>
<path d="M7.99999 16C7.67419 16.1 7.35719 16.3 7.03119 16.5C7.22809 18.4 9.36829 20 12 20C14.646 20 16.792 18.4 16.969 16.4C16.647 16.3 16.321 16.1 16 16H7.99999Z" fill="#ECF0F1"/>
<path d="M15 13H9V18H15V13Z" fill="#95A5A6"/>
<path d="M12 0C9.03739 0 6.58199 2.6899 6.09379 6.2188C5.98029 6.1878 5.85369 6.1537 5.74999 6.1875C5.22489 6.3585 5.09549 7.356 5.43749 8.4062C5.63819 9.0225 5.97209 9.5077 6.31249 9.7812C7.08879 12.799 9.32749 15 12 15C14.672 15 16.911 12.799 17.688 9.7812C18.028 9.5076 18.362 9.0224 18.562 8.4062C18.904 7.356 18.775 6.3585 18.25 6.1875C18.146 6.1537 18.02 6.1878 17.906 6.2188C17.418 2.6898 14.963 0 12 0Z" fill="#BDC3C7"/>
<path d="M11.98 0.000155019C9.9372 -0.099845 8.04141 1.30011 7.00001 3.20011C6.46981 4.10011 6.11611 5.20011 5.96021 6.20011C6.29461 6.10011 6.56041 6.30018 6.86321 5.90018C7.49221 5.30018 7.77161 4.80016 8.00001 4.00015C8.39011 3.10015 9.24321 1.70016 10 2.00015C10.693 2.20016 11 2.60013 12 2.60013C13 2.60013 13.307 2.20016 14 2.00015C14.757 1.70016 15.61 3.10015 16 4.00015C16.228 4.80016 16.468 5.30018 17.097 5.90018C17.4 6.30018 17.666 6.10011 18 6.20011C17.844 5.20011 17.49 4.10011 16.96 3.20011C15.919 1.30011 14.023 -0.099845 11.98 0.000155019Z" fill="#F39C12"/>
<path d="M8 16C8 17.657 9.7909 19 12 19C14.209 19 16 17.657 16 16H8Z" fill="#95A5A6"/>
</g>
<defs>
<clipPath id="clip0">
<rect width="24" height="24" fill="white"/>
</clipPath>
</defs>
</svg>
