<svg width="58" height="58" viewBox="0 0 58 58" fill="none" xmlns="http://www.w3.org/2000/svg">
<g clip-path="url(#clip0)">
<path d="M7.15716 14.9308L2.38574 38.7777H4.77145L2.38574 55.4706H7.15716H50.0999H54.8714L52.4857 38.7777H54.8714L50.0999 14.9308H7.15716Z" fill="#F39C12"/>
<path d="M54.8714 55.4706H2.38574V57.8553H54.8714V55.4706Z" fill="#F39C12"/>
<path d="M9.54287 17.3155L2.38574 50.7012H54.9453L47.7142 17.3155H9.54287Z" fill="#ECF0F1"/>
<path d="M42.9428 41.1624H11.9286V50.7012H42.9428V41.1624Z" fill="#95A5A6"/>
<path d="M2.38574 38.7777V55.4706H54.8714V38.7777H35.3372C34.3471 41.4009 31.7324 43.5471 28.6286 43.5471C25.5247 43.5471 22.91 41.4009 21.9187 38.7777H2.38574Z" fill="#F1C40F"/>
</g>
<defs>
<clipPath id="clip0">
<rect width="57.2571" height="57.2327" fill="white" transform="translate(0 0.62262)"/>
</clipPath>
</defs>
</svg>
