<svg width="57" height="57" viewBox="0 0 57 57" fill="none" xmlns="http://www.w3.org/2000/svg">
<g clip-path="url(#clip0)">
<path d="M0 15.675V38L28.5 57V34.675L0 15.675Z" fill="#E67E22"/>
<path d="M57 15.675V38L28.5 57V34.675L57 15.675Z" fill="#F39C12"/>
<path d="M19 3.08734L0 15.675L28.5 34.675L57 15.675L38 3.08734H19Z" fill="#F1C40F"/>
<path d="M12.6666 9.5V15.6749C12.6666 20.8999 19.7555 25.1749 28.5 25.1749C37.2448 25.1749 44.3341 20.8999 44.3341 15.6749V9.5H12.6659H12.6666Z" fill="#F39C12"/>
<path d="M12.6665 9.5V15.6749C12.6665 20.8999 19.7554 25.1749 28.4999 25.1749V9.5H12.6665Z" fill="#E67E22"/>
<path d="M44.3337 9.49952C44.3337 12.019 42.6655 14.4353 39.6961 16.2169C36.7267 17.9984 32.6994 18.9993 28.5 18.9993C24.3007 18.9993 20.2733 17.9984 17.304 16.2169C14.3346 14.4353 12.6664 12.019 12.6664 9.49952C12.6664 6.98002 14.3346 4.56372 17.304 2.78217C20.2733 1.00062 24.3007 -0.000244141 28.5 -0.000244141C32.6994 -0.000244141 36.7267 1.00062 39.6961 2.78217C42.6655 4.56372 44.3337 6.98002 44.3337 9.49952Z" fill="#F1C40F"/>
</g>
<defs>
<clipPath id="clip0">
<rect width="57" height="57" fill="white"/>
</clipPath>
</defs>
</svg>
