<svg width="57" height="57" viewBox="0 0 57 57" fill="none" xmlns="http://www.w3.org/2000/svg">
<g clip-path="url(#clip0)">
<path d="M0 18.0499L4.75e-07 38L28.5 57V37.0499L0 18.0499Z" fill="#E67E22"/>
<path d="M57 18.0499V38L28.5 57V37.0499L57 18.0499Z" fill="#F39C12"/>
<path d="M28.5 0L0 18.0499L28.5 37.0499L57 18.0499L28.5 0Z" fill="#F1C40F"/>
<path d="M20.1875 5.22488V8.78738C20.1875 11.8749 23.9091 14.25 28.5 14.25C33.0909 14.25 36.8125 11.8749 36.8125 8.78738V5.22488H20.1875Z" fill="#E67E22"/>
<path d="M20.1875 5.22488V8.78738C20.1875 11.8749 23.9091 14.25 28.5 14.25V5.22488H20.1875Z" fill="#E67E22"/>
<path d="M36.8125 5.34375C36.8125 6.761 35.9367 8.1202 34.3778 9.12235C32.8189 10.1245 30.7046 10.6875 28.5 10.6875C26.2954 10.6875 24.1811 10.1245 22.6222 9.12235C21.0633 8.1202 20.1875 6.761 20.1875 5.34375C20.1875 3.9265 21.0633 2.5673 22.6222 1.56515C24.1811 0.563001 26.2954 0 28.5 0C30.7046 0 32.8189 0.563001 34.3778 1.56515C35.9367 2.5673 36.8125 3.9265 36.8125 5.34375Z" fill="#F1C40F"/>
<path d="M35.625 14.7249V18.2874C35.625 21.3749 39.3466 23.75 43.9375 23.75C48.5284 23.75 52.25 21.3749 52.25 18.2874V14.7249H35.625Z" fill="#E67E22"/>
<path d="M35.625 14.7249V18.2874C35.625 21.3749 39.3466 23.75 43.9375 23.75V14.7249H35.625Z" fill="#E67E22"/>
<path d="M52.25 14.8438C52.25 16.261 51.3742 17.6202 49.8153 18.6224C48.2564 19.6245 46.1421 20.1875 43.9375 20.1875C41.7329 20.1875 39.6186 19.6245 38.0597 18.6224C36.5008 17.6202 35.625 16.261 35.625 14.8438C35.625 13.4265 36.5008 12.0673 38.0597 11.0651C39.6186 10.063 41.7329 9.5 43.9375 9.5C46.1421 9.5 48.2564 10.063 49.8153 11.0651C51.3742 12.0673 52.25 13.4265 52.25 14.8438Z" fill="#F1C40F"/>
<path d="M4.75 13.5374V17.0999C4.75 20.1874 8.47163 22.5625 13.0625 22.5625C17.6534 22.5625 21.375 20.1874 21.375 17.0999V13.5374H4.75Z" fill="#E67E22"/>
<path d="M4.75 13.5374V17.0999C4.75 20.1874 8.47163 22.5625 13.0625 22.5625V13.5374H4.75Z" fill="#E67E22"/>
<path d="M21.375 13.6562C21.375 15.0735 20.4992 16.4327 18.9403 17.4349C17.3814 18.437 15.2671 19 13.0625 19C10.8579 19 8.74357 18.437 7.18468 17.4349C5.62578 16.4327 4.75 15.0735 4.75 13.6562C4.75 12.239 5.62578 10.8798 7.18468 9.87765C8.74357 8.8755 10.8579 8.3125 13.0625 8.3125C15.2671 8.3125 17.3814 8.8755 18.9403 9.87765C20.4992 10.8798 21.375 12.239 21.375 13.6562Z" fill="#F1C40F"/>
<path d="M20.1875 23.0374V26.5999C20.1875 29.6874 23.9091 32.0625 28.5 32.0625C33.0909 32.0625 36.8125 29.6874 36.8125 26.5999V23.0374H20.1875Z" fill="#E67E22"/>
<path d="M20.1875 23.0374V26.5999C20.1875 29.6874 23.9091 32.0625 28.5 32.0625V23.0374H20.1875Z" fill="#E67E22"/>
<path d="M36.8125 23.1562C36.8125 24.5735 35.9367 25.9327 34.3778 26.9349C32.8189 27.937 30.7046 28.5 28.5 28.5C26.2954 28.5 24.1811 27.937 22.6222 26.9349C21.0633 25.9327 20.1875 24.5735 20.1875 23.1562C20.1875 21.739 21.0633 20.3798 22.6222 19.3776C24.1811 18.3755 26.2954 17.8125 28.5 17.8125C30.7046 17.8125 32.8189 18.3755 34.3778 19.3776C35.9367 20.3798 36.8125 21.739 36.8125 23.1562Z" fill="#F1C40F"/>
</g>
<defs>
<clipPath id="clip0">
<rect width="57" height="57" fill="white"/>
</clipPath>
</defs>
</svg>
